<svg width="251" height="30" viewBox="0 0 251 30" fill="none" xmlns="http://www.w3.org/2000/svg">
<path d="M89.2327 0H82.4091L70.1973 30H74.1727L77.4041 21.96H94.0949L97.3413 30H101.452L89.2327 0ZM78.832 18.39L84.7538 3.75H86.7678L92.6595 18.3825L78.832 18.39Z" fill="#1E1E1E"/>
<path d="M237.818 17.5275V30H233.903V17.4825L220.654 0H225.344L235.827 13.89L246.446 0H251L237.818 17.5275Z" fill="#1E1E1E"/>
<path d="M61.9454 30H37.2812V0H61.9454V3.5325H40.9786V13.2225H59.4504V16.7775H40.9786V26.4675H61.9454V30Z" fill="#1E1E1E"/>
<path d="M213.012 30H188.34V0H213.012V3.5325H192.037V13.2225H210.509V16.7775H192.037V26.4675H213.012V30Z" fill="#1E1E1E"/>
<path d="M175.167 30H171.8L151.803 6.75V30H148.008V0H151.375L171.342 23.25V0H175.137L175.167 30Z" fill="#1E1E1E"/>
<path d="M27.2267 0H22.079L8.97287 13.125H3.79506V0H0V30H3.79506V16.875H8.95784L22.079 30H27.2267L12.4824 15L27.2267 0Z" fill="#1E1E1E"/>
<path d="M137.674 30L127.649 16.7175C128.37 16.6878 129.087 16.5924 129.79 16.4325C133.48 15.27 135.877 12.4425 135.877 8.3775C135.877 2.9175 132.12 0 125.356 0H110.582V30H114.34V16.7775H122.982L133.014 30H137.674ZM114.377 3.5325H125.281C129.64 3.5325 131.962 5.19 131.962 8.3775C131.962 11.565 129.708 13.2225 125.281 13.2225H114.362L114.377 3.5325Z" fill="#1E1E1E"/>
</svg>
